<?xml version="1.0" encoding="UTF-8" standalone="no"?>
<!DOCTYPE svg PUBLIC "-//W3C//DTD SVG 1.1//EN" "http://www.w3.org/Graphics/SVG/1.1/DTD/svg11.dtd">
<svg width="100%" height="100%" viewBox="0 0 1687 2215" version="1.1" xmlns="http://www.w3.org/2000/svg" xmlns:xlink="http://www.w3.org/1999/xlink" xml:space="preserve" xmlns:serif="http://www.serif.com/" style="fill-rule:evenodd;clip-rule:evenodd;stroke-linejoin:round;stroke-miterlimit:2;">
    <g transform="matrix(1,0,0,1,-628.045,-397.622)">
        <g transform="matrix(4.16667,0,0,4.16667,0,0)">
            <path d="M361.325,626.842C468.262,626.842 555.481,607.137 555.481,582.977C555.481,558.819 468.262,539.114 361.325,539.114C254.387,539.114 167.169,558.819 167.169,582.977C167.169,607.137 254.387,626.842 361.325,626.842Z" style="fill:rgb(205,204,204);"/>
        </g>
        <g transform="matrix(4.16667,0,0,4.16667,0,0)">
            <path d="M336.521,304.058C423.325,306.42 488.108,364.878 489.166,453.471C489.668,495.578 485.585,512.184 499.301,554.252C518.172,612.139 440.92,627.078 395.341,608.258C349.159,590.085 274.68,572.451 227.498,595.154C203.65,606.628 161.643,616.008 156.698,577.803C151.4,536.875 199.255,535.93 186.729,475.7C184.762,466.236 184.071,457.896 183.944,448.253C183.944,368.617 252.255,304.058 336.521,304.058Z" style="fill:rgb(189,91,39);"/>
        </g>
        <g transform="matrix(4.16667,0,0,4.16667,0,0)">
            <path d="M467.172,373.836C480.906,396.116 488.802,423.012 489.166,453.471C489.244,478.316 484.8,520.039 498.528,541.062C510.255,559.017 527.715,574.912 505.996,595.55C485.962,614.589 436.977,619.246 410.868,613.112L408.46,612.546C403.743,611.364 399.851,610.025 395.341,608.258C349.159,590.085 274.68,572.451 227.498,595.154C209.434,603.557 177.816,611.037 160.047,598.907C143.584,587.667 152.107,563.773 161.428,550.892C168.567,541.026 175.444,534.056 181.657,523.097C187.27,512.579 180.434,503.88 181.977,491.397C183.36,480.209 186.403,476.973 184.988,464.26C183.765,453.053 183.387,451.074 179.279,440.081C174.876,428.307 175.764,422.466 183.54,412.359C190.458,403.743 193.724,399.736 196.97,388.756C202.861,368.826 200.223,364.183 219.541,352.612C228.735,347.105 234.841,340.296 243.566,333.964C250.441,328.974 257.362,324.808 264.903,320.908C263.396,324.366 262.001,327.335 261.519,328.756C256.414,343.85 265.22,356.533 271.501,369.662C275.31,377.682 276.272,381.976 283.616,387.824C289.806,392.432 289.878,392.619 281.994,398.776C271.536,406.944 262.917,414.37 275.375,427.011C280.695,432.411 287.621,436.246 294.363,439.565C303.76,443.776 333.815,453.204 315.636,467.116C309.305,471.962 300.143,474.115 292.404,475.653L286.371,476.766C269.681,479.473 245.142,480.302 264.794,502.058C270.787,508.695 286.673,517.223 289.304,523.646C294.085,535.309 261.183,527.692 256.355,526.709C242.252,523.62 235.754,521.259 221.905,527.251C213.587,530.672 210.174,530.281 202.492,532.247C181.375,538.73 140.342,570.264 187.762,575.258C199.976,576.544 208.728,573.888 220.248,570.713L222.508,570.092C226.13,569.13 229.241,568.35 232.974,567.878C243.213,566.896 251.793,564.209 261.411,563.128C268.909,562.452 280.816,562.995 288.67,563.135C312.813,563.596 316.355,562.412 339.056,571.832C346.206,574.797 356.114,577.291 363.773,579.709C393.383,589.303 435.414,603.654 464.949,587.358C492.731,572.031 460.717,561.009 447.82,553.11C427.688,540.778 429.654,534.461 443.619,516.334L444.935,514.625C451.78,506.15 472.972,483.839 472.65,473.897C472.044,455.105 436.953,460.036 456.23,417.461L457.379,414.923C463.497,402.092 472.543,389.122 467.511,374.781C467.401,374.469 467.285,374.153 467.172,373.836Z" style="fill:rgb(166,72,36);"/>
        </g>
        <g transform="matrix(4.16667,0,0,4.16667,0,0)">
            <path d="M445.719,477.373C438.861,482.355 425.929,485.117 422.735,487.841C412.575,496.516 418.479,533.443 422.103,544.772C423.525,549.225 431.242,567.1 423.185,568.203C403.376,564.496 406.116,531.982 382.8,529.38C378.45,528.895 364.636,527.004 361.037,527.462C355.265,528.196 350.272,535.391 345.611,539.306L344.837,539.957C331.284,550.418 321.884,546.493 307.691,552.085C284.861,561.079 282.983,554.803 261.268,552.782C250.145,551.745 239.076,549.973 228.053,548.181C209.543,545.168 200.448,555.429 188.241,554.394C180.789,553.762 176.131,546.218 183.327,545.27C196.22,543.569 200.568,538.633 211.586,535.033C223,531.305 237.979,532.811 249.733,534.491C257.12,535.564 262.14,535.764 269.46,537.885C285.578,542.581 289.224,544.199 304.715,536.312C311.004,533.11 311.163,533.648 317.688,533.093C327.529,532.258 320.363,516.28 316.286,512.431C313.641,509.935 311.07,509.042 308.212,506.562C294.94,495.037 293.59,502.248 286.196,498.126C279.949,494.644 284.053,488.067 290.513,486.228C297.072,484.36 310.899,485.204 318.465,484.736C325.36,484.309 331.672,486.912 340.217,486.088C347.511,484.843 350.519,480.319 353.2,473.859C354.593,470.191 354.979,467.516 352.512,464.362C350.8,462.747 346.28,460.702 343.246,457.965C331.768,447.286 329.708,439.488 312.223,438.715C301.569,438.244 297.345,432.069 291.37,424.137C280.167,409.26 288.414,398.856 304.888,405.763C321.505,412.732 323.488,418.937 344.256,419.999C352.708,420.156 353.712,415.122 352.703,407.839C349.72,388.037 343.464,379.014 337.111,361.447C329.82,341.289 345.635,359.007 351.002,360.403C357.091,361.984 366.171,357.464 371.633,354.994C387.118,349.028 384.721,364.866 401.902,364.427C406.583,364.308 411.257,363.816 416.164,363.684C422.721,363.512 428.812,363.133 431.761,371.045C433.951,379.64 429.445,389.199 431.577,392.921C435.64,400.013 457.781,387.219 455.235,404.554C452.893,420.501 430.573,436.618 431.44,448.268C431.769,452.672 435.68,456.293 438.627,459.26C442.944,463.525 453.979,466.963 448.316,474.763C447.557,475.809 446.687,476.549 445.719,477.373Z" style="fill:rgb(217,119,60);"/>
        </g>
        <g transform="matrix(4.16667,0,0,4.16667,0,0)">
            <path d="M336.521,304.058C398.778,305.752 449.705,336.304 473.92,386.131C455.865,411.216 426.136,417.977 393.228,421.793C353.563,425.771 231.468,436.313 185.519,427.513C196.162,357.704 259.707,304.058 336.521,304.058Z" style="fill:rgb(153,65,32);"/>
        </g>
        <g transform="matrix(4.16667,0,0,4.16667,0,0)">
            <path d="M295.3,429.263C294.018,427.679 292.74,425.954 291.37,424.137C280.167,409.26 288.414,398.856 304.888,405.763C321.505,412.732 323.488,418.937 344.256,419.999C352.708,420.156 353.712,415.122 352.703,407.839C349.72,388.037 343.464,379.014 337.111,361.447C329.82,341.289 345.635,359.007 351.002,360.403C357.091,361.984 366.171,357.464 371.633,354.994C387.118,349.028 384.721,364.866 401.902,364.427C406.583,364.308 411.257,363.816 416.164,363.684C422.721,363.512 428.812,363.133 431.761,371.045C433.951,379.64 429.445,389.199 431.577,392.921C435.578,399.907 457.12,387.598 455.332,403.797C438.234,414.91 416.528,419.09 393.228,421.793C373.969,423.724 335.274,427.204 295.3,429.263Z" style="fill:rgb(189,91,39);"/>
        </g>
        <g transform="matrix(4.16667,0,0,4.16667,0,0)">
            <path d="M467.01,394.311C469.122,388.02 469.887,381.554 467.511,374.781C467.405,374.484 467.296,374.18 467.187,373.878C469.615,377.821 471.866,381.907 473.92,386.131C471.776,389.11 469.468,391.826 467.01,394.311ZM193.397,398.222L193.437,398.142L193.466,398.08L193.475,398.066L193.551,397.906L193.59,397.828L193.617,397.77L193.626,397.749L193.666,397.669L193.703,397.589L193.743,397.509L193.766,397.454L193.779,397.427L193.783,397.418L193.855,397.265L193.892,397.186L193.914,397.136L193.928,397.104L194.004,396.94L194.041,396.858L194.061,396.814L194.077,396.774L194.152,396.611L194.188,396.527L194.207,396.487L194.227,396.443L194.263,396.36L194.335,396.192L194.35,396.156L194.372,396.107L194.408,396.021L194.445,395.938L194.481,395.85L194.494,395.821L194.518,395.764L194.554,395.679L194.59,395.592L194.626,395.506L194.636,395.483L194.661,395.419L194.698,395.331L194.734,395.245L194.776,395.137L194.805,395.068L194.841,394.979L194.876,394.889L194.912,394.802L194.918,394.787L194.947,394.711L194.983,394.62L195.018,394.533L195.052,394.442L195.056,394.433L195.089,394.351L195.124,394.26L195.158,394.167L195.194,394.075L195.229,393.984L195.263,393.889L195.3,393.798L195.333,393.706L195.334,393.704L195.369,393.611L195.405,393.516L195.438,393.421L195.471,393.335L195.475,393.327L195.507,393.23L195.543,393.135L195.576,393.041L195.607,392.959L195.613,392.943L195.646,392.848L195.682,392.75L195.715,392.652L195.716,392.652L195.744,392.576L195.748,392.582C203.701,374.635 215.389,358.536 229.885,345.142C234.306,341.487 238.494,337.645 243.566,333.964C250.419,328.991 257.318,324.835 264.832,320.945L264.903,320.91C263.395,324.366 262.001,327.335 261.519,328.756C256.414,343.85 265.22,356.533 271.501,369.662C275.31,377.682 276.272,381.976 283.616,387.824C289.806,392.432 289.878,392.619 281.994,398.776C271.536,406.944 262.917,414.37 275.375,427.011C276.423,428.076 277.533,429.078 278.693,430.028C241.863,431.512 206.074,431.451 185.519,427.513L177.165,423.992C178.069,420.36 180.148,416.765 183.54,412.359C188.037,406.758 190.988,403.106 193.397,398.222Z" style="fill:rgb(132,53,26);"/>
        </g>
        <g transform="matrix(4.16667,0,0,4.16667,0,0)">
            <path d="M397.7,403.349C354.618,407.668 214.297,419.734 179.912,406.351C121.658,383.679 174.287,320.174 205.685,297.565C271.669,250.052 371.944,227.134 449.73,256.881C490.183,272.35 503.015,300.359 490.602,342.053C476.692,388.769 439.795,398.466 397.7,403.349Z" style="fill:rgb(189,91,39);"/>
        </g>
        <g transform="matrix(4.16667,0,0,4.16667,0,0)">
            <path d="M397.7,403.349C354.618,407.668 214.297,419.734 179.912,406.351C172.12,403.319 166.327,399.547 162.188,395.249C179.517,397.043 197.375,399.86 215.982,400.429C250.028,401.47 280.618,396.951 314.672,396.305C330.167,396.01 345.637,395.706 361.136,395.548C418.909,395.009 450.559,383.337 484.326,335.707C487.851,330.737 491.333,326.014 494.768,321.602C494.144,328.012 492.754,334.827 490.602,342.053C476.692,388.769 439.795,398.466 397.7,403.349Z" style="fill:rgb(166,72,36);"/>
        </g>
        <g transform="matrix(4.16667,0,0,4.16667,0,0)">
            <path d="M187.531,340.612C186.625,321.21 236.38,293.997 252.149,278.667C297.396,234.196 323.561,202.045 392.063,229.521C419.821,241.363 479.916,278.073 461.083,316.438C446.881,345.37 392.286,348.515 364.967,354.602C314.89,365.762 270.756,375.572 219.115,363.827C205.332,360.692 190.178,356.091 187.531,340.612Z" style="fill:rgb(240,229,223);"/>
        </g>
        <g transform="matrix(4.16667,0,0,4.16667,0,0)">
            <path d="M437.545,257.233C457.197,273.659 471.713,294.785 461.083,316.438C446.881,345.37 392.286,348.515 364.967,354.602C314.89,365.762 270.756,375.572 219.115,363.827C207.425,361.168 194.75,357.452 189.554,346.942C203.723,355.381 222.546,359.249 244.33,357.424C289.078,353.675 324,330.924 373.834,326.5C419.801,322.832 458.391,323.132 440.104,264.988C439.268,262.327 438.412,259.748 437.545,257.233Z" style="fill:rgb(219,205,198);"/>
        </g>
        <g transform="matrix(4.16667,0,0,4.16667,0,0)">
            <path d="M392.093,382.948C400.581,382.303 462.038,377.808 435.378,363.634C399.36,349.618 347.478,370.695 307.519,374.582C276.841,377.566 214.104,381.704 187.328,369.47C178.107,365.26 165.245,353.906 166.922,371.319C169.411,397.131 222.81,390.894 245.957,390.487C295.89,389.603 342.437,386.957 392.093,382.948Z" style="fill:rgb(217,119,60);"/>
        </g>
        <g transform="matrix(4.16667,0,0,4.16667,0,0)">
            <path d="M443.256,96.392C450.692,99.254 454.436,107.681 451.571,115.117L419.847,197.54L392.804,187.131L424.531,104.707C427.393,97.272 435.818,93.529 443.256,96.392Z" style="fill:rgb(189,91,39);"/>
        </g>
        <g transform="matrix(4.16667,0,0,4.16667,0,0)">
            <path d="M412.397,176.558C433.196,184.562 443.661,208.128 435.656,228.927L408.943,298.326L333.316,269.215L360.029,199.816C368.034,179.018 391.6,168.552 412.397,176.558Z" style="fill:rgb(130,51,25);"/>
        </g>
        <g transform="matrix(4.16667,0,0,4.16667,0,0)">
            <path d="M408.185,187.505C423.235,193.299 430.812,210.354 425.017,225.406L405.683,275.631L350.95,254.563L370.284,204.338C376.077,189.286 393.132,181.712 408.185,187.505Z" style="fill:rgb(78,35,13);"/>
        </g>
        <g transform="matrix(4.16667,0,0,4.16667,0,0)">
            <path d="M437.53,104.538L437.532,104.539C441.427,106.038 443.387,110.452 441.888,114.347L421.438,167.472C419.939,171.368 415.525,173.329 411.63,171.829L411.628,171.828C407.733,170.329 405.772,165.914 407.272,162.019L427.723,108.895C429.222,104.999 433.635,103.038 437.53,104.538Z" style="fill:rgb(209,108,48);"/>
        </g>
        <g transform="matrix(4.16667,0,0,4.16667,0,0)">
            <path d="M339.316,226.784C376.108,233.733 409.761,246.781 437.401,271.495C427.428,288.772 416.894,301.016 406.92,318.293C364.357,310.611 322.355,307.96 279.794,300.279C279.701,299.906 279.606,299.534 279.514,299.161C299.448,275.035 319.382,250.91 339.316,226.784Z" style="fill:rgb(240,229,223);"/>
        </g>
        <g transform="matrix(4.16667,0,0,4.16667,0,0)">
            <path d="M221.032,338.454C250.098,350.91 345.424,310.985 368.076,292.477C398.327,267.762 354.858,196.225 295.966,249.275C271.216,271.57 269.564,281.884 237.009,301.132C223.823,308.929 201.365,323.369 221.032,338.454Z" style="fill:rgb(254,249,247);"/>
        </g>
    </g>
</svg>
